<svg xmlns="http://www.w3.org/2000/svg" width="120" height="32" viewBox="0 0 120 32" fill="none">
  <!-- Sun background -->
  <circle cx="16" cy="16" r="12" fill="#FF6B35" opacity="0.9"/>
  
  <!-- Sun rays -->
  <g stroke="#FF6B35" stroke-width="2" stroke-linecap="round">
    <line x1="16" y1="2" x2="16" y2="6"/>
    <line x1="16" y1="26" x2="16" y2="30"/>
    <line x1="2" y1="16" x2="6" y2="16"/>
    <line x1="26" y1="16" x2="30" y2="16"/>
    <line x1="6.34" y1="6.34" x2="9.17" y2="9.17"/>
    <line x1="22.83" y1="22.83" x2="25.66" y2="25.66"/>
    <line x1="25.66" y1="6.34" x2="22.83" y2="9.17"/>
    <line x1="9.17" y1="22.83" x2="6.34" y2="25.66"/>
  </g>
  
  <!-- Cloud overlay -->
  <path d="M20 18c0-2.21 1.79-4 4-4 0.34 0 0.67 0.04 1 0.12C25.6 12.27 27.13 11 29 11c2.76 0 5 2.24 5 5 0 0.34-0.04 0.67-0.12 1H20z" fill="white" opacity="0.8"/>
  <circle cx="22" cy="20" r="3" fill="white" opacity="0.9"/>
  
  <!-- AccuWeather text -->
  <text x="38" y="12" font-family="Arial, sans-serif" font-size="10" font-weight="bold" fill="white">
    AccuWeather
  </text>
  <text x="38" y="24" font-family="Arial, sans-serif" font-size="6" fill="white" opacity="0.8">
    Daily Dewdrops
  </text>
</svg>
